<svg xmlns="http://www.w3.org/2000/svg" viewBox="0 0 408.59 307.35"><defs><style>.cls-1{fill:#9b3142;}.cls-1,.cls-10,.cls-3,.cls-4,.cls-6,.cls-7,.cls-8,.cls-9{stroke:#000;stroke-miterlimit:10;stroke-width:4px;}.cls-2{fill:#882434;}.cls-3{fill:none;}.cls-4{fill:#3f3a3b;}.cls-5,.cls-8{fill:#cea887;}.cls-6{fill:#e5c89b;}.cls-7{fill:#444041;}.cls-9{fill:#8c9eb0;}.cls-10{fill:#a6c0d0;}</style></defs><g id="图层_2" data-name="图层 2"><g id="图层_1-2" data-name="图层 1"><path class="cls-1" d="M5.7,260.62S52,210.71,88.47,238.3c0,0,13-19.07,49.1-13.8s10.15-28.4,10.15-28.4l-30.84-31.25-45.45-6.49L10.57,236.68Z"/><path class="cls-2" d="M148.88,197.7c-.71-1-1.16-1.6-1.16-1.6l-24.23-24.55L96.81,162l-9.89-1.41-22.75,7.13-32,41.22-1.27,2.18s42.6-41.39,42.6-17.45c0,12.48-.33,26.61-.65,37.28a40.25,40.25,0,0,1,15.66,7.36,19.88,19.88,0,0,1,2.19-2.51L99,214s22.27-23.53,22.09-4.46c0,5.43-.21,10.2-.43,14.25a79.48,79.48,0,0,1,16.89.76c6.4.94,10.85.64,13.84-.47Z"/><path class="cls-3" d="M5.7,260.62S52,210.71,88.47,238.3c0,0,13-19.07,49.1-13.8s10.15-28.4,10.15-28.4l-30.84-31.25-45.45-6.49L10.57,236.68Z"/><path class="cls-4" d="M2.29,280.16c-1.86-20.93,2.24-83.29,99.27-151.75a2,2,0,0,1,3,.9c4.23,10.91,25.14,55.76,86,65.37l8.12.4L193,200.36s-25.56,5.27-36.52,23.13l-15.82-15.42s-10.15-51.54-44.23,16.64c-1.67,3.32-5.78,13.63-8.23,19.85a1.39,1.39,0,0,1-2.68-.36A104.69,104.69,0,0,1,85,227.55c2-39,11-81.17-34.9-35.31C38.77,203.61,25.78,222.68,16.45,243,10.28,256.37,6.6,271.55,4.81,280.3A1.28,1.28,0,0,1,2.29,280.16Z"/><path class="cls-5" d="M218.73,270.35c.4,8.93,5.23,16.14,15.39-25.2.32-1.28.62-2.48.92-3.61H222.25C220,252.37,218.47,264.74,218.73,270.35Z"/><path class="cls-6" d="M166.38,257.37c-8.11,17.45-34.49,21.1-30.84-1.22,5.52-33.72,38.55-19.07,38.55-19.07s13.8-1.22,16.64-16.64c0,0-38.6-36.45-68.58,3.66-28.81,38.54.41,77.9,27.59,75.06,25.95-2.71,34.09-19.88,41.8-43S166.38,257.37,166.38,257.37Z"/><path class="cls-7" d="M404.2,90.76C390.66,69.42,323.26,88,253.66,132.13c-38.53,24.45-69.65,51.65-87.47,74.67,14.17,3.85,24.54,13.64,24.54,13.64-2.84,15.42-16.64,16.64-16.64,16.64s-12.52-5.55-23.43-2c-1.53,6.2-1.12,11.51,1.49,15.63,13.55,21.33,80.95,2.81,150.55-41.37S417.75,112.09,404.2,90.76Z"/><path class="cls-8" d="M165.68,258.76c-6,11-19.31,15.86-26.19,11.11-.24-.1,14.24,15.45,30.74-10.47A43.36,43.36,0,0,1,165.68,258.76Z"/><path class="cls-9" d="M164,160.46s-12.63,6.42-13.44,10.48l15.82,17,18.26-1.21-.81-19.08Z"/><path class="cls-4" d="M127,118.6S174.9,167.69,195.19,201l150.54-98.6S314.49,43.94,301.5,8.23Z"/><ellipse class="cls-7" cx="213.35" cy="62.99" rx="103.52" ry="29.97" transform="translate(-0.53 124.15) rotate(-32.41)"/><path class="cls-9" d="M176.93,175s99-12.58,158.56-91.13l14.7,24.58s-55.18,64.93-157,90.08l-8.52-11.76Z"/><path class="cls-10" d="M351.82,110.48l-11-17.64c-48.21,73.23-155.73,94.33-155.73,94.33l13.79,19.48C305.56,188.79,351.82,110.48,351.82,110.48Z"/><path class="cls-6" d="M234.13,245.14h0c-10.16,41.34-15,34.13-15.39,25.2s3.65-34.89,8.11-44.63,5.68-1.22,5.68-1.22,4.06,0,9.74-8.92,2.43-15.42,2.43-15.42-4.87-8.52-17.44-8.93-22.73,5.27-32.47,25.56-8.11,48.29-8.11,48.29,1.22,42.6,26.78,40.17,33.2-65.44,33.2-65.44h0Q240.28,242.68,234.13,245.14Z"/></g></g></svg>